<svg width="36" height="22" viewBox="0 0 36 22" fill="none" xmlns="http://www.w3.org/2000/svg">
<path d="M2.15584 0C1.09518 0 0.235352 0.89543 0.235352 2V5H35.7644V2C35.7644 0.895431 34.9046 0 33.8439 0H2.15584Z" fill="white"/>
<path fill-rule="evenodd" clip-rule="evenodd" d="M35.7644 10H0.235352V20C0.235352 21.1046 1.09518 22 2.15584 22H33.8439C34.9046 22 35.7644 21.1046 35.7644 20V10ZM3.11609 16.5C3.11609 15.6716 3.76096 15 4.55645 15H5.5167C6.31219 15 6.95706 15.6716 6.95706 16.5C6.95706 17.3284 6.31219 18 5.5167 18H4.55645C3.76096 18 3.11609 17.3284 3.11609 16.5ZM10.3179 15C9.52243 15 8.87755 15.6716 8.87755 16.5C8.87755 17.3284 9.52243 18 10.3179 18H14.1589C14.9544 18 15.5993 17.3284 15.5993 16.5C15.5993 15.6716 14.9544 15 14.1589 15H10.3179Z" fill="white"/>
</svg>
