<svg width="17" height="15" viewBox="0 0 17 15" fill="none" xmlns="http://www.w3.org/2000/svg">
<path d="M8.50432 14.6002L7.32553 13.5637C3.15407 9.9002 0.400111 7.48167 0.400111 4.51634C0.394402 3.94802 0.505719 3.38431 0.72755 2.85818C0.949381 2.33204 1.27727 1.85406 1.69204 1.45218C2.10681 1.0503 2.60013 0.732598 3.14314 0.517661C3.68614 0.302724 4.26794 0.194866 4.85448 0.200398C5.54842 0.204906 6.23328 0.35354 6.8629 0.636276C7.49252 0.919012 8.05224 1.32928 8.50432 1.8394C8.95524 1.33014 9.5135 0.920375 10.1415 0.637661C10.7696 0.354948 11.4528 0.205849 12.1453 0.200398C12.7319 0.194866 13.3137 0.302724 13.8567 0.517661C14.3997 0.732598 14.893 1.0503 15.3078 1.45218C15.7225 1.85406 16.0504 2.33204 16.2723 2.85818C16.4941 3.38431 16.6054 3.94802 16.5997 4.51634C16.5997 7.48167 13.8457 9.9002 9.67428 13.5722L8.50432 14.6002Z" fill="#D8D8D8"/>
</svg>
