<svg width="20" height="18" viewBox="0 0 20 18" fill="none" xmlns="http://www.w3.org/2000/svg">
<path fill-rule="evenodd" clip-rule="evenodd" d="M12.6618 1.04129C11.8418 0.692233 10.9414 0.5 10 0.5C6.53416 0.5 3.62253 3.10603 3.23979 6.55071L2.967 9.00578C2.9472 9.18404 2.93846 9.26225 2.92827 9.33875C2.80464 10.2667 2.50246 11.1619 2.03845 11.9749C2.0002 12.0419 1.95974 12.1094 1.86746 12.2632L1.24126 13.3069L1.21755 13.3464C0.91905 13.8438 0.660445 14.2748 0.499157 14.6355C0.334476 15.0039 0.195519 15.4569 0.345707 15.9381C0.419905 16.1758 0.543984 16.3949 0.709654 16.5809C1.045 16.9572 1.50494 17.0711 1.90551 17.1194C2.29783 17.1667 2.80041 17.1667 3.38053 17.1667H3.38055L3.42662 17.1667H16.5735L16.6195 17.1667H16.6195C17.1997 17.1667 17.7022 17.1667 18.0946 17.1194C18.4951 17.0711 18.9551 16.9572 19.2904 16.5809C19.4561 16.3949 19.5802 16.1758 19.6544 15.9381C19.8046 15.4569 19.6656 15.0039 19.5009 14.6355C19.3396 14.2748 19.081 13.8439 18.7825 13.3464L18.7825 13.3464L18.7588 13.3069L18.1326 12.2632C18.0403 12.1094 17.9999 12.0419 17.9616 11.9749C17.5464 11.2473 17.2608 10.454 17.1167 9.63025C16.9145 9.6543 16.7087 9.66667 16.5 9.66667C16.1902 9.66667 15.8867 9.63939 15.5918 9.5871C15.7451 10.6891 16.1072 11.7519 16.6589 12.7184C16.7061 12.8012 16.7553 12.8831 16.841 13.026L16.8412 13.0264L16.8464 13.035L17.4726 14.0786C17.8016 14.6271 18.0117 14.9798 18.1316 15.2478C18.2022 15.4058 18.2156 15.4804 18.2179 15.5045C18.2087 15.5289 18.1958 15.5518 18.1796 15.5722C18.1577 15.5826 18.0868 15.6095 17.915 15.6302C17.6235 15.6654 17.213 15.6667 16.5735 15.6667H3.42662C2.78707 15.6667 2.37653 15.6654 2.08505 15.6302C1.91325 15.6095 1.84233 15.5826 1.8205 15.5722C1.80426 15.5518 1.79133 15.5289 1.78216 15.5045C1.78447 15.4804 1.79789 15.4058 1.86852 15.2478C1.98835 14.9798 2.19845 14.6271 2.5275 14.0786L3.1537 13.035L3.15867 13.0267C3.24466 12.8834 3.2939 12.8013 3.3412 12.7184C3.90123 11.7372 4.26592 10.6568 4.41513 9.53685C4.42773 9.44228 4.4383 9.34718 4.45675 9.18114L4.45676 9.18105L4.45783 9.17143L4.73061 6.71636C5.02895 4.03133 7.29848 2 10 2C10.6355 2 11.2471 2.11241 11.8148 2.31928C12.0332 1.85084 12.3198 1.42059 12.6618 1.04129ZM15.123 2.82712C14.6978 3.17751 14.4085 3.68685 14.3461 4.26421C14.7506 4.8422 15.0436 5.50645 15.1922 6.22756C15.5556 6.50314 16.0087 6.66667 16.5 6.66667C16.5919 6.66667 16.6824 6.66095 16.7713 6.64985L16.7603 6.55071C16.6017 5.12371 16.0092 3.84063 15.123 2.82712ZM18.2183 15.5108L18.2183 15.5136C18.2183 15.5136 18.2183 15.5132 18.2184 15.5124C18.2184 15.512 18.2184 15.5115 18.2183 15.5108ZM18.1876 15.5678C18.1876 15.5678 18.1869 15.5684 18.1852 15.5693C18.1867 15.5683 18.1875 15.5678 18.1876 15.5678ZM1.81251 15.5678C1.81257 15.5678 1.81343 15.5683 1.81491 15.5693C1.81319 15.5684 1.81245 15.5678 1.81251 15.5678ZM1.78181 15.5136C1.78175 15.5136 1.78168 15.5127 1.78174 15.5107C1.78189 15.5126 1.78186 15.5136 1.78181 15.5136Z" fill="black"/>
</svg>
